<svg viewBox="0 0 24 24" fill="none" xmlns="http://www.w3.org/2000/svg">
  <path d="M6.52 14.72c0 .36.04.65.13.87.08.22.21.47.39.75.02.03.03.06.03.08 0 .04-.02.08-.06.11l-.2.13c-.03.02-.06.03-.1.03-.04 0-.08-.02-.12-.05-.18-.19-.33-.4-.45-.62-.12-.23-.18-.47-.18-.74 0-.53.14-.96.42-1.28.28-.32.66-.48 1.14-.48.5 0 .89.16 1.17.48.28.32.42.75.42 1.28 0 .27-.06.51-.18.74-.12.22-.27.43-.45.62-.04.03-.08.05-.12.05-.04 0-.07-.01-.1-.03l-.2-.13c-.04-.03-.06-.07-.06-.11 0-.02.01-.05.03-.08.18-.28.31-.53.39-.75.08-.22.13-.51.13-.87 0-.38-.1-.68-.29-.9-.19-.22-.47-.33-.83-.33-.36 0-.64.11-.83.33-.19.22-.29.52-.29.9z" fill="#FF9900"/>
  <path d="M12.9 17.35c-.05 0-.08-.01-.11-.04-.03-.03-.04-.06-.04-.11v-2.27c0-.47-.1-.8-.29-1-.19-.2-.47-.3-.83-.3-.24 0-.48.04-.73.13-.25.09-.45.2-.6.35-.04.04-.1.06-.16.06-.04 0-.07-.01-.1-.03-.03-.02-.04-.05-.04-.09v-.34c0-.05.01-.09.04-.12.03-.03.07-.06.13-.08.25-.13.52-.23.81-.29.29-.06.58-.09.87-.09.67 0 1.16.15 1.48.46.32.31.48.77.48 1.38v1.82c0 .05-.01.08-.04.11-.03.03-.06.04-.11.04h-.38zm-1.44-1.72c.23 0 .47-.04.71-.12.24-.08.45-.2.62-.36.1-.1.18-.21.23-.34.05-.13.08-.28.08-.44v-.21c-.16.04-.33.08-.5.11-.17.03-.35.05-.53.05-.38 0-.67.08-.87.23-.2.15-.3.37-.3.66 0 .26.08.46.23.59.15.13.37.2.66.2l-.33-.37z" fill="#FF9900"/>
  <path d="M22.23 17.39c-.03 0-.05-.01-.08-.02-.03-.01-.05-.04-.07-.07l-1.07-3.15c-.02-.06-.02-.1-.02-.13 0-.05.02-.08.07-.08h.43c.05 0 .09.01.11.04.02.03.04.06.05.1l.73 2.87.68-2.87c.01-.04.03-.07.05-.1.02-.03.06-.04.11-.04h.35c.05 0 .09.01.11.04.02.03.04.06.05.1l.69 2.9.75-2.9c.01-.04.03-.07.05-.1.02-.03.06-.04.11-.04h.41c.05 0 .08.03.08.08 0 .02 0 .04-.01.06 0 .02-.01.04-.01.07l-1.1 3.15c-.01.03-.03.06-.07.07-.03.01-.05.02-.08.02h-.38c-.05 0-.09-.01-.11-.04-.02-.03-.04-.06-.05-.1l-.68-2.83-.67 2.83c-.01.04-.03.07-.05.1-.02.03-.06.04-.11.04h-.38z" fill="#FF9900"/>
  <path d="M17.54 17.35c-.37 0-.66-.1-.87-.31-.21-.21-.32-.5-.32-.87 0-.38.12-.68.35-.9.23-.22.55-.33.95-.33.37 0 .66.1.86.31.2.21.3.5.3.87v.11c0 .05-.02.08-.07.08h-1.69c.01.28.09.5.23.64.14.14.34.21.59.21.13 0 .25-.02.36-.05.11-.03.21-.08.3-.13.04-.02.07-.04.09-.04.02 0 .04.01.05.02.01.01.02.03.02.06v.27c0 .04-.01.07-.04.09-.03.02-.07.04-.13.06-.12.04-.25.07-.39.09-.14.02-.28.03-.42.03zm-.87-1.27h1.34c0-.25-.06-.45-.18-.59-.12-.14-.29-.21-.5-.21-.22 0-.39.07-.53.21-.14.14-.22.34-.24.59h.11z" fill="#FF9900"/>
</svg> 