<svg viewBox="0 0 24 24" fill="none" xmlns="http://www.w3.org/2000/svg">
  <path d="M13.983 11.078h2.119a.186.186 0 00.186-.185V9.006a.186.186 0 00-.186-.186h-2.119a.185.185 0 00-.185.185v1.888c0 .102.083.185.185.185m-2.954-5.43h2.118a.186.186 0 00.186-.186V3.574a.186.186 0 00-.186-.185h-2.118a.185.185 0 00-.185.185v1.888c0 .102.082.185.185.185m0 2.716h2.118a.187.187 0 00.186-.186V6.29a.186.186 0 00-.186-.185h-2.118a.185.185 0 00-.185.185v1.888c0 .102.082.185.185.185m-2.93 0h2.12a.186.186 0 00.185-.186V6.29a.185.185 0 00-.185-.185H8.1a.185.185 0 00-.185.185v1.888c0 .102.083.185.185.185m-2.964 0h2.119a.186.186 0 00.185-.186V6.29a.185.185 0 00-.185-.185H5.136a.186.186 0 00-.186.185v1.888c0 .102.084.185.186.185m5.893 2.715h2.118a.186.186 0 00.186-.185V9.006a.186.186 0 00-.186-.186h-2.118a.185.185 0 00-.185.185v1.888c0 .102.082.185.185.185m-2.93 0h2.12a.185.185 0 00.185-.185V9.006a.185.185 0 00-.185-.186H8.1a.185.185 0 00-.185.186v1.888c0 .102.083.185.185.185m-2.164 0h2.119a.185.185 0 00.185-.185V9.006a.185.185 0 00-.185-.186h-2.12a.186.186 0 00-.185.186v1.888c0 .102.083.185.186.185m6.641 2.715h2.119a.185.185 0 00.185-.185v-1.888a.185.185 0 00-.185-.185h-2.119a.185.185 0 00-.185.185v1.888c0 .102.083.185.185.185m-2.93 0h2.12a.185.185 0 00.185-.185v-1.888a.185.185 0 00-.185-.185H8.1a.185.185 0 00-.185.185v1.888c0 .102.083.185.185.185m-2.964 0h2.119a.185.185 0 00.185-.185v-1.888a.185.185 0 00-.185-.185H5.136a.185.185 0 00-.185.185v1.888c0 .102.083.185.185.185M2.172 13.78h2.119a.186.186 0 00.186-.186v-1.888a.186.186 0 00-.186-.185H2.172a.185.185 0 00-.185.185v1.888c0 .102.083.185.185.185" fill="#2496ED"/>
  <path d="M18.51 9.355c-.74-.417-1.6-.623-2.498-.623-.475 0-.953.062-1.43.186a.3.3 0 00-.199.199c-.186.477-.186.992 0 1.469a.3.3 0 00.199.199c.477.124.955.186 1.43.186.899 0 1.758-.206 2.498-.623.416-.234.416-.416 0-.65" fill="#2496ED"/>
</svg> 