<svg xmlns="http://www.w3.org/2000/svg" viewBox="0 0 100 100">
  <title>GraphQL Logo</title>
  <path fill="#E10098" d="M50 6.903L87.336 28v42.103L50 91.213 12.664 70.103V28L50 6.903zM16.72 65.387l29.04 16.757 29.04-16.757V32.716L45.76 15.959 16.72 32.716v32.671zm7.424-27.95l25.617-14.72 25.617 14.72v29.434l-25.617 14.788-25.617-14.788V37.438z"/>
  <path fill="#E10098" d="M28.32 58.787V39.37l18.688-10.891L65.568 39.37v19.417L46.88 69.545 28.32 58.787z"/>
  <circle fill="#E10098" cx="16.72" cy="65.387" r="4.932"/>
  <circle fill="#E10098" cx="16.72" cy="32.716" r="4.932"/>
  <circle fill="#E10098" cx="50" cy="15.959" r="4.932"/>
  <circle fill="#E10098" cx="83.28" cy="32.716" r="4.932"/>
  <circle fill="#E10098" cx="83.28" cy="65.387" r="4.932"/>
  <circle fill="#E10098" cx="50" cy="82.145" r="4.932"/>
</svg> 