<svg xmlns="http://www.w3.org/2000/svg" viewBox="0 0 512 512">
  <title>HTML5 Logo</title>
  <path fill="#E44D26" d="M107.6 470.9l-33-370.3h362.8l-33 370.2L255.8 512z"/>
  <path fill="#F16529" d="M256 480.5l120.6-33.3 28.4-319.2H256z"/>
  <path fill="#EBEBEB" d="M256 268.2h-60.1l-4.1-46.5H256v-45.4H142.1l1.1 12.2 11.2 125.1H256zM256 386.2h-.2l-50.6-13.6-3.2-36.3h-45.6l6.4 71.3 93 25.9.2-.1z"/>
  <path fill="#FFF" d="M255.8 268.2v45.4h55.7l-5.2 59-50.5 13.6v47.2l93-25.8.7-7.6 10.7-119.6 1.1-12.2h-12.2zM255.8 176.3v45.4H365.5l.9-10.2 2.1-23 1.1-12.2z"/>
</svg> 