<svg xmlns="http://www.w3.org/2000/svg" viewBox="0 0 84 84">
  <title>Laravel Logo</title>
  <path fill="#FF2D20" d="M82.5 19.7c0 .1-16.6 19.1-17.2 19.8-1 1.1-2 .7-3.2.2-.1-.1-12.8-3.5-13.5-3.7-.6-.2-.7-.3-.7-.8l-.1-17c0-.6.3-.9.8-.9h4c.5 0 .7.1.7.8v13l9.6 2.6-13-15.2c-.2-.3-.4-.7-.4-1 0-.3.3-.8.7-.8h4.4c.5 0 .7.1 1 .5 0 0 5.3 5.9 5.3 5.9l5.3-5.9c.3-.4.5-.6 1-.6h4.2c.4 0 .8.5.7.8-.1.3-.3.7-.5 1L57.5 30.6l9-10.4c.5-.6.6-.7 1.2-.7h3.2c.9 0 1.6.3 2.1 1 .8 1.1 9.5 10.8 9.5 10.8.3.3.2.7-.2.9-.3.2-1 .6-1.3.6-.3 0-.6-.1-.9-.4l-8.3-9.2v16.3c0 .8-.5.9-1.3.6-.7-.3-2.4-1-3.2-1.3 0 0 7.9-9.2 8.6-10 .7-.7.5-1-.2-1.7l-5.2-5.8c-.2-.3-.3-.6-.1-.9.2-.3.6-.4.9-.4h10.3c.6 0 .9.3.9.7-.1 0 .1-.2.1-.1zM40.4 27.1v17.2c0 .6-.3.9-1 1.1-7.3 2-26.1 7.1-27.1 7.4-.8.2-1.6 0-2.1-.9L1.5 33.7c-.1-.2-.1-.4-.1-.7 0-.4.2-.6.8-.8L30.8 24c.8-.3 1.1-.1 1.5.6l7.5 14.7V22.7c0-.6.3-.9.9-.9h4c.6 0 .9.3.9.9V39l-3.4-6.4c-.3-.6-.7-.8-1.5-.6l-18 5.5c-.6.2-.8.4-.5 1l4.7 8.6c.2.4.5.5.9.4l22.2-6.1c.5-.2.7-.4.7-1V27.1h-10.3z"/>
</svg> 