<svg xmlns="http://www.w3.org/2000/svg" viewBox="0 0 128 128">
  <title>MySQL Logo</title>
  <path fill="#00618A" d="M116.948 97.807c-6.863-.187-12.104.452-16.585 2.341-1.273.537-3.305.552-3.513 2.147.7.733.809 1.829 1.365 2.731 1.07 1.73 2.876 4.052 4.488 5.268 1.762 1.33 3.577 2.751 5.465 3.902 3.358 2.047 7.107 3.217 10.34 5.268 1.906 1.21 3.799 2.733 5.658 4.097.92.675 1.537 1.724 2.732 2.147v-.194c-.628-.8-.79-1.898-1.366-2.731l-2.537-2.537c-2.48-3.292-5.629-6.184-8.976-8.585-2.669-1.916-8.642-4.504-9.755-7.609l-.195-.195c1.892-.214 4.107-.898 5.854-1.367 2.934-.786 5.556-.583 8.585-1.365l4.097-1.171v-.78c-1.531-1.571-2.623-3.651-4.292-5.073-4.37-3.72-9.138-7.437-14.048-10.537-2.724-1.718-6.089-2.835-8.976-4.292-.971-.491-2.677-.746-3.318-1.562-1.517-1.932-2.342-4.382-3.511-6.633-2.449-4.717-4.854-9.868-7.024-14.831-1.48-3.384-2.447-6.72-4.293-9.756-8.86-14.567-18.396-23.358-33.169-32-3.144-1.838-6.929-2.563-10.929-3.513-2.145-.129-4.292-.26-6.438-.391-1.311-.546-2.673-2.149-3.902-2.927C17.811 1.927 8.535-1.858 5.734 6.217c-1.765 5.11 2.46 10.098 3.902 12.683.967 1.724 2.2 3.663 2.926 5.658.463 1.279.296 2.573.585 3.902.827 3.773 1.568 7.925 2.634 11.442.531 1.753 1.104 3.577 1.757 5.269.486 1.251 1.318 1.84 1.366 3.901-.801 1.223-.276 2.974-.585 4.488-2.863 16.36.517 36.67 9.366 48.292 2.312 3.041 7.566 10.368 15.026 7.609 5.626-2.111 4.261-9.375 5.853-15.61.359-1.417.195-.7 1.171-1.562v.195l3.512 7.024c2.6 4.187 7.212 8.562 11.05 11.636 2.099 1.68 3.766 4.584 6.438 5.658v-.195h-.195c-.5-.77-1.295-1.94-1.465-2.244-1.023-1.657-2.166-3.447-3.318-5.122-2.633-3.826-5.561-7.983-7.804-11.831-1.19-2.046-2.242-4.277-3.122-6.438-.37-.852-.266-2.923-1.366-3.513-1.243 1.949-3.07 3.565-3.902 5.853-1.466 3.983-1.692 8.402-2.342 13.268l-.196.195c-2.751-.67-3.7-3.51-4.682-5.853-2.8-6.305-3.545-16.866-1.171-24.342.734-2.424 3.917-10.093 2.636-12.489-1.08-2.315-3.213-4.125-4.682-6.048-1.612-2.134-3.312-4.835-4.877-7.219-1.087-1.651-1.773-3.533-3.122-4.877-1.485-1.489-3.316-.74-4.292-2.146-1.347-1.941-.289-4.275.982-5.464 2.021-1.898 4.908.095 6.244 1.756 1.573 1.644 2.279 3.882 3.316 5.853.488.93 1.006 2.079 1.561 3.024.807 1.275 2.005 1.827 2.732 3.122.536.954.949 2.092 1.561 3.122 1.39 2.339 2.638 4.85 4.097 7.218.731 1.182 1.561 2.438 2.537 3.513.584.643 1.658.934 2.147 1.561-.551 1.247-.391 2.742-.585 4.097-1.006 8.262-.937 21.781 2.146 28.048.586 1.18 3.183 6.735 6.244 4.877 2.695-1.64 1.849-7.23 2.341-11.636.117-1.057 0-1.858.391-2.341v.585c.781 1.563 1.561 3.044 2.146 4.683 1.855 4.291 5.111 8.78 7.805 11.831 1.423 1.608 2.47 4.39 4.488 5.268v-.195-.195c-.407-.583-1.072-.977-1.561-1.562-1.22-1.414-2.581-3.179-3.512-4.682-2.964-4.818-5.562-10.063-7.804-15.318-1.055-2.479-1.977-5.2-2.732-7.609-.306-.911-.442-2.31-1.366-2.732-1.236 1.859-3.121 3.453-3.902 5.853-1.518 4.621-1.481 11.719-.781 16.878.343.942.599 3.889 0 4.877-2.44-.795-3.299-3.479-4.097-5.854-2.111-6.306-2.57-16.635-.391-24.928.593-2.276 3.239-9.454 2.146-11.636-.998-2.031-4.269-3.199-5.853-4.877-1.823-1.931-3.74-4.325-5.073-6.438-1.172-1.857-2.262-3.952-3.316-5.854-1.119-1.999-2.86-2.971-3.709-5.658-.483-1.255.195-3.005 1.17-3.513 1.06-.558 2.911.828 3.707 1.365 2.101 1.422 3.604 2.644 5.268 4.488 1.317 1.466 2.443 3.556 3.902 4.292h1.757c2.241.49 4.872.304 7.023 1.171 3.883 1.568 7.185 3.497 10.342 5.853 9.661 7.212 17.911 18.043 23.317 31.045 1.357 3.195 1.888 6.225 3.121 9.562 2.438 6.615 5.519 13.507 7.999 19.999 2.48 6.491 4.943 12.985 8.39 18.047 1.788 2.623 8.3 3.999 11.245 5.464 2.208 1.06 5.733 2.039 7.804 3.316 4.022 2.474 8.169 5.185 11.831 7.804 1.823 1.308 7.602 4.526 8 6.244-.123-1.12.507-2.306 0-3.513z"/>
  <path fill="#00618A" d="M52.609 24.397c-1.19-.042-2.057.128-2.926.391v.195h.195c.585 1.16 1.583 1.953 2.341 2.926.585 1.176.976 2.341 1.562 3.513l.195-.195c.975-.683 1.447-1.756 1.366-3.122-.355-.775-.814-1.271-1.366-1.953-.587-.723-1.665-1.08-1.367-2.755z"/>
</svg> 