<svg viewBox="0 0 24 24" fill="none" xmlns="http://www.w3.org/2000/svg">
  <path d="M23.111 5.72c-.17-1.269-.79-2.292-1.85-3.048-.32-.23-.67-.42-1.04-.57-.36-.15-.74-.26-1.14-.33-1.64-.29-3.33-.15-4.86.41-1.54.56-2.91 1.46-3.96 2.62-1.04 1.16-1.77 2.54-2.12 4.04-.31 1.31-.31 2.67 0 3.98.36 1.49 1.08 2.88 2.12 4.04 1.05 1.16 2.42 2.06 3.96 2.62 1.53.56 3.22.7 4.86.41.4-.07.78-.18 1.14-.33.37-.15.72-.34 1.04-.57 1.06-.76 1.68-1.78 1.85-3.05.17-1.32-.09-2.66-.63-3.85-.51-1.13-1.28-2.12-2.24-2.88-.93-.73-2.03-1.21-3.19-1.39a6.11 6.11 0 00-3.55.36c-1.15.5-2.17 1.26-2.94 2.22-.78.96-1.29 2.08-1.47 3.26-.18 1.18-.03 2.39.43 3.48.43 1.02 1.11 1.92 1.96 2.62.86.7 1.87 1.18 2.94 1.39 1.07.21 2.18.16 3.22-.15 1.04-.31 1.99-.85 2.77-1.57.75-.69 1.33-1.53 1.69-2.46.33-.84.43-1.75.29-2.64-.13-.82-.47-1.6-.98-2.26-.51-.66-1.17-1.19-1.93-1.55-.76-.36-1.59-.54-2.43-.52-.84.02-1.66.24-2.4.64-.74.4-1.38.96-1.86 1.65-.48.69-.79 1.47-.9 2.28-.11.81-.02 1.64.27 2.41.26.69.67 1.31 1.2 1.82.53.51 1.16.89 1.85 1.11.69.22 1.41.28 2.13.17.72-.11 1.41-.37 2.01-.76.6-.39 1.11-.91 1.48-1.53.37-.62.6-1.32.67-2.04.07-.72-.04-1.45-.32-2.12-.28-.67-.72-1.26-1.28-1.74-.56-.48-1.23-.83-1.95-1.02-.72-.19-1.47-.22-2.21-.08-.74.14-1.44.44-2.05.87-.61.43-1.12.99-1.49 1.65-.37.66-.6 1.39-.67 2.14-.07.75.04 1.51.32 2.21.28.7.72 1.33 1.28 1.84.56.51 1.23.89 1.95 1.11.72.22 1.47.28 2.21.17.74-.11 1.44-.37 2.05-.76.61-.39 1.12-.91 1.49-1.53.37-.62.6-1.32.67-2.04.07-.72-.04-1.45-.32-2.12-.14-.34-.32-.65-.54-.94l.01-.01c.14-.17.26-.35.36-.54.19-.37.31-.77.35-1.18.04-.41 0-.83-.12-1.23l-.01-.02z" fill="#336791"/>
</svg> 