<svg viewBox="0 0 24 24" fill="none" xmlns="http://www.w3.org/2000/svg">
  <path d="M12 2C6.48 2 2 6.48 2 12s4.48 10 10 10 10-4.48 10-10S17.52 2 12 2zm-1.5 15c-1.38 0-2.5-1.12-2.5-2.5s1.12-2.5 2.5-2.5 2.5 1.12 2.5 2.5-1.12 2.5-2.5 2.5zm5-5c-1.38 0-2.5-1.12-2.5-2.5s1.12-2.5 2.5-2.5 2.5 1.12 2.5 2.5-1.12 2.5-2.5 2.5z" fill="#DC382D"/>
  <path d="M12 6.5c4.14 0 7.5 1.79 7.5 4s-3.36 4-7.5 4-7.5-1.79-7.5-4 3.36-4 7.5-4zm0 8c4.14 0 7.5 1.79 7.5 4s-3.36 4-7.5 4-7.5-1.79-7.5-4 3.36-4 7.5-4z" fill="#DC382D"/>
</svg> 