<svg viewBox="0 0 24 24" fill="none" xmlns="http://www.w3.org/2000/svg">
  <path d="M7.508 0c-.287 0-.573.052-.844.15C5.851.367 5.12.96 4.656 1.737c-.302.507-.454 1.086-.439 1.677.015.591.208 1.162.559 1.645.703 1.024 2.002 1.529 3.245 1.26.287-.062.566-.173.823-.325.514-.304.956-.726 1.279-1.244.323-.518.515-1.107.563-1.718.048-.611-.049-1.223-.283-1.779C9.968.597 9.418.096 8.778-.158A2.33 2.33 0 007.508 0z" fill="#FA7343"/>
  <path d="M17.956 8.234c-1.037-.615-2.199-.947-3.4-.973-1.199-.025-2.387.273-3.467.871-.54.299-1.031.683-1.449 1.136-.418.453-.757.971-1.002 1.532-.49 1.122-.49 2.405 0 3.527.245.561.584 1.079 1.002 1.532.418.453.909.837 1.449 1.136 1.08.598 2.268.896 3.467.871 1.201-.026 2.363-.358 3.4-.973 1.557-.923 2.51-2.606 2.51-4.43s-.953-3.507-2.51-4.43z" fill="#FA7343"/>
</svg> 