<svg xmlns="http://www.w3.org/2000/svg" viewBox="0 0 400 400">
  <title>TypeScript Logo</title>
  <rect width="400" height="400" fill="#007ACC"/>
  <path fill="#fff" d="M85 200v-13.7h69.2v13.7H124v123h-16.9V200zm143.7-14.6c-10-1.3-18 .8-24 6.7-3.5 3.2-5.8 7-7.5 11.4l13.2 2.5c1-3 2.3-5 4.1-6.5 3.3-2.8 8.7-3 14-1 4.2 1.7 7.1 4.3 8.6 7.8 1 2.2 1.5 5 1.5 8.3v3.7c-14.2 1.8-24.5 4.3-31 7.5-11.5 5.7-17.2 13.5-17.2 23.6 0 10.4 6.8 19.5 19.9 19.5 6.6 0 12.9-1.5 18.7-4.6 3-1.5 6-3.7 9.2-6.4.5 2 1 3.7 1.5 5.1.7 2 1.3 3.5 2.1 5.2h16c-1-3-1.7-6-2-9.2-.3-2.6-.5-6-.5-10.1v-33.9c0-6.9-1.3-12.6-4-17-5.5-8.8-14.9-12.8-22.6-13.6zm19 53.2c0 4.9-1 9-3 12.4a19.4 19.4 0 01-16.8 10.3c-2.5 0-5-.5-7.3-1.3-5.6-2-8.4-6.1-8.4-12.2 0-7.3 5-12.4 14.7-15.1a84.3 84.3 0 120.7-3.5v9.4zm47-67.9h16.7V300h-16.7z"/>
</svg> 